<svg xmlns="http://www.w3.org/2000/svg" width="20.5" height="21.5" viewBox="0 0 20.5 21.5">
  <g id="Home" transform="translate(0.75 0.75)">
    <path id="Path_138" data-name="Path 138" d="M15.527,20.75H13.586a1.987,1.987,0,0,1-1.935-1.969V15.7a.677.677,0,0,0-.683-.669H8.081a.677.677,0,0,0-.674.669v3.067a.75.75,0,0,1-.031.213A1.989,1.989,0,0,1,5.4,20.75H3.473A4.21,4.21,0,0,1-.75,16.562V7.847s0,0,0-.007A3.15,3.15,0,0,1,.5,5.351L7.044.1a3.93,3.93,0,0,1,4.88,0L18.5,5.342a3.172,3.172,0,0,1,1.25,2.486s0,.007,0,.01v8.724A4.21,4.21,0,0,1,15.527,20.75Zm-1.913-1.5h1.913a2.709,2.709,0,0,0,2.723-2.688V7.844a1.681,1.681,0,0,0-.667-1.314l-.012-.01L10.99,1.272a2.415,2.415,0,0,0-3.011,0L1.431,6.528l-.016.013A1.661,1.661,0,0,0,.75,7.851v8.711A2.709,2.709,0,0,0,3.473,19.25H5.4a.485.485,0,0,0,.491-.479.752.752,0,0,1,.019-.17V15.7a2.182,2.182,0,0,1,2.169-2.169h2.891A2.179,2.179,0,0,1,13.151,15.7v3.076A.478.478,0,0,0,13.614,19.25Z" fill="#553f86"/>
  </g>
</svg>
